<svg aria-hidden="true" style="position: absolute; width: 0; height: 0; overflow: hidden;" version="1.1" xmlns="http://www.w3.org/2000/svg" xmlns:xlink="http://www.w3.org/1999/xlink" class="ionicon">
    <defs>
        <symbol id="icon-book" viewBox="0 0 512 512">
            <path d="M256 160c16-63.16 76.43-95.41 208-96a15.94 15.94 0 0116 16v288a16 16 0 01-16 16c-128 0-177.45 25.81-208 64-30.37-38-80-64-208-64-9.88 0-16-8.05-16-17.93V80a15.94 15.94 0 0116-16c131.57.59 192 32.84 208 96zM256 160v288" fill="none" stroke="currentColor" stroke-linecap="round" stroke-linejoin="round" stroke-width="32"/>
        </symbol>
        <symbol id="icon-calendar" viewBox="0 0 512 512">
            <rect fill="none" stroke="currentColor" stroke-linejoin="round" stroke-width="32" x="48" y="80" width="416" height="384" rx="48"/>
            <circle cx="296" cy="232" r="24"/>
            <circle cx="376" cy="232" r="24"/>
            <circle cx="296" cy="312" r="24"/>
            <circle cx="376" cy="312" r="24"/>
            <circle cx="136" cy="312" r="24"/>
            <circle cx="216" cy="312" r="24"/>
            <circle cx="136" cy="392" r="24"/>
            <circle cx="216" cy="392" r="24"/>
            <circle cx="296" cy="392" r="24"/>
            <path fill="none" stroke="currentColor" stroke-linejoin="round" stroke-width="32" stroke-linecap="round" d="M128 48v32M384 48v32"/>
            <path fill="none" stroke="currentColor" stroke-linejoin="round" stroke-width="32" d="M464 160H48"/>
        </symbol>
        <symbol id="icon-language" viewBox="0 0 512 512">
            <path fill="none" stroke="currentColor" stroke-linecap="round" stroke-linejoin="round" stroke-width="32" d="M48 112h288M192 64v48M272 448l96-224 96 224M301.5 384h133M281.3 112S257 206 199 277 80 384 80 384"/>
            <path d="M256 336s-35-27-72-75-56-85-56-85" fill="none" stroke="currentColor" stroke-linecap="round" stroke-linejoin="round" stroke-width="32"/>
        </symbol>
        <symbol id="icon-person" viewBox="0 0 512 512">
            <path d="M344 144c-3.92 52.87-44 96-88 96s-84.15-43.12-88-96c-4-55 35-96 88-96s92 42 88 96z" fill="none" stroke="currentColor" stroke-linecap="round" stroke-linejoin="round" stroke-width="32"/>
            <path d="M256 304c-87 0-175.3 48-191.64 138.6C62.39 453.52 68.57 464 80 464h352c11.44 0 17.62-10.48 15.65-21.4C431.3 352 343 304 256 304z" fill="none" stroke="currentColor" stroke-miterlimit="10" stroke-width="32"/>
        </symbol>
        <symbol id="icon-search" viewBox="0 0 512 512">
            <path d="M221.09 64a157.09 157.09 0 10157.09 157.09A157.1 157.1 0 00221.09 64z" fill="none" stroke="currentColor" stroke-miterlimit="10" stroke-width="32"/>
            <path fill="none" stroke="currentColor" stroke-linecap="round" stroke-miterlimit="10" stroke-width="32" d="M338.29 338.29L448 448"/>
        </symbol>
        <symbol id="icon-arrow-show" viewBox="0 0 512 512">
            <path d="M98 190.06l139.78 163.12a24 24 0 0036.44 0L414 190.06c13.34-15.57 2.28-39.62-18.22-39.62h-279.6c-20.5 0-31.56 24.05-18.18 39.62z"/>
        </symbol>
        <symbol id="icon-arrow-hide" viewBox="0 0 512 512">
            <path d="M190.06 414l163.12-139.78a24 24 0 000-36.44L190.06 98c-15.57-13.34-39.62-2.28-39.62 18.22v279.6c0 20.5 24.05 31.56 39.62 18.18z"/>
        </symbol>
        <symbol id="icon-link" viewBox="0 0 512 512">
            <path d="M208 352h-64a96 96 0 010-192h64M304 160h64a96 96 0 010 192h-64M163.29 256h187.42" fill="none" stroke="currentColor" stroke-linecap="round" stroke-linejoin="round" stroke-width="36"/>
        </symbol>
        <symbol id="icon-wikidata" viewBox="0 0 1050 590">
            <path d="m 120,545 h 30 V 45 H 120 V 545 z m 60,0 h 90 V 45 H 180 V 545 z M 300,45 V 545 h 90 V 45 h -90 z" style="fill:#990000" />
            <path d="m 840,545 h 30 V 45 H 840 V 545 z M 900,45 V 545 h 30 V 45 H 900 z M 420,545 h 30 V 45 H 420 V 545 z M 480,45 V 545 h 30 V 45 h -30 z" style="fill:#339966" />
            <path d="m 540,545 h 90 V 45 h -90 V 545 z m 120,0 h 30 V 45 H 660 V 545 z M 720,45 V 545 h 90 V 45 H 720 z" style="fill:#006699" />
        </symbol>
        <symbol id="icon-library" viewBox="0 0 512 512">
            <rect x="32" y="96" width="64" height="368" rx="16" ry="16" fill="none" stroke="currentColor" stroke-linejoin="round" stroke-width="32"/>
            <path fill="none" stroke="currentColor" stroke-linecap="round" stroke-linejoin="round" stroke-width="32" d="M112 224h128M112 400h128"/>
            <rect x="112" y="160" width="128" height="304" rx="16" ry="16" fill="none" stroke="currentColor" stroke-linejoin="round" stroke-width="32"/>
            <rect x="256" y="48" width="96" height="416" rx="16" ry="16" fill="none" stroke="currentColor" stroke-linejoin="round" stroke-width="32"/>
            <path d="M422.46 96.11l-40.4 4.25c-11.12 1.17-19.18 11.57-17.93 23.1l34.92 321.59c1.26 11.53 11.37 20 22.49 18.84l40.4-4.25c11.12-1.17 19.18-11.57 17.93-23.1L445 115c-1.31-11.58-11.42-20.06-22.54-18.89z" fill="none" stroke="currentColor" stroke-linejoin="round" stroke-width="32"/>
        </symbol>
        <symbol id="icon-loading" viewBox="0 0 512 512">
            <path d="M448 256c0-106-86-192-192-192S64 150 64 256s86 192 192 192 192-86 192-192z" fill="none" stroke="currentColor" stroke-miterlimit="10" stroke-width="32"/>
            <path d="M351.82 271.87v-16A96.15 96.15 0 00184.09 192m-24.2 48.17v16A96.22 96.22 0 00327.81 320" fill="none" stroke="currentColor" stroke-linecap="round" stroke-linejoin="round" stroke-width="32"/>
            <path fill="none" stroke="currentColor" stroke-linecap="round" stroke-linejoin="round" stroke-width="32" d="M135.87 256l23.59-23.6 24.67 23.6M376.13 256l-23.59 23.6-24.67-23.6"/>
        </symbol>
        <symbol id="icon-alert" viewBox="0 0 512 512">
            <path d="M448 256c0-106-86-192-192-192S64 150 64 256s86 192 192 192 192-86 192-192z" fill="none" stroke="currentColor" stroke-miterlimit="10" stroke-width="32"/>
            <path d="M250.26 166.05L256 288l5.73-121.95a5.74 5.74 0 00-5.79-6h0a5.74 5.74 0 00-5.68 6z" fill="none" stroke="currentColor" stroke-linecap="round" stroke-linejoin="round" stroke-width="32"/>
            <path d="M256 367.91a20 20 0 1120-20 20 20 0 01-20 20z"/>
        </symbol>
    </defs>
</svg>
