<svg aria-hidden="true" style="position: absolute; width: 0; height: 0; overflow: hidden;" version="1.1" xmlns="http://www.w3.org/2000/svg" xmlns:xlink="http://www.w3.org/1999/xlink" class="ionicon">
    <defs>
        <symbol id="icon-book" viewBox="0 0 512 512">
            <path d="M256 160c16-63.16 76.43-95.41 208-96a15.94 15.94 0 0116 16v288a16 16 0 01-16 16c-128 0-177.45 25.81-208 64-30.37-38-80-64-208-64-9.88 0-16-8.05-16-17.93V80a15.94 15.94 0 0116-16c131.57.59 192 32.84 208 96zM256 160v288" fill="none" stroke="currentColor" stroke-linecap="round" stroke-linejoin="round" stroke-width="32"/>
        </symbol>
        <symbol id="icon-calendar" viewBox="0 0 512 512">
            <rect fill="none" stroke="currentColor" stroke-linejoin="round" stroke-width="32" x="48" y="80" width="416" height="384" rx="48"/>
            <circle cx="296" cy="232" r="24"/>
            <circle cx="376" cy="232" r="24"/>
            <circle cx="296" cy="312" r="24"/>
            <circle cx="376" cy="312" r="24"/>
            <circle cx="136" cy="312" r="24"/>
            <circle cx="216" cy="312" r="24"/>
            <circle cx="136" cy="392" r="24"/>
            <circle cx="216" cy="392" r="24"/>
            <circle cx="296" cy="392" r="24"/>
            <path fill="none" stroke="currentColor" stroke-linejoin="round" stroke-width="32" stroke-linecap="round" d="M128 48v32M384 48v32"/>
            <path fill="none" stroke="currentColor" stroke-linejoin="round" stroke-width="32" d="M464 160H48"/>
        </symbol>
        <symbol id="icon-language" viewBox="0 0 512 512">
            <path fill="none" stroke="currentColor" stroke-linecap="round" stroke-linejoin="round" stroke-width="32" d="M48 112h288M192 64v48M272 448l96-224 96 224M301.5 384h133M281.3 112S257 206 199 277 80 384 80 384"/>
            <path d="M256 336s-35-27-72-75-56-85-56-85" fill="none" stroke="currentColor" stroke-linecap="round" stroke-linejoin="round" stroke-width="32"/>
        </symbol>
        <symbol id="icon-person" viewBox="0 0 512 512">
            <path d="M344 144c-3.92 52.87-44 96-88 96s-84.15-43.12-88-96c-4-55 35-96 88-96s92 42 88 96z" fill="none" stroke="currentColor" stroke-linecap="round" stroke-linejoin="round" stroke-width="32"/>
            <path d="M256 304c-87 0-175.3 48-191.64 138.6C62.39 453.52 68.57 464 80 464h352c11.44 0 17.62-10.48 15.65-21.4C431.3 352 343 304 256 304z" fill="none" stroke="currentColor" stroke-miterlimit="10" stroke-width="32"/>
        </symbol>
        <symbol id="icon-search" viewBox="0 0 512 512">
            <path d="M221.09 64a157.09 157.09 0 10157.09 157.09A157.1 157.1 0 00221.09 64z" fill="none" stroke="currentColor" stroke-miterlimit="10" stroke-width="32"/>
            <path fill="none" stroke="currentColor" stroke-linecap="round" stroke-miterlimit="10" stroke-width="32" d="M338.29 338.29L448 448"/>
        </symbol>
    </defs>
</svg>
